<mxfile host="app.diagrams.net" modified="2021-04-26T15:54:21.071Z" agent="5.0 (Windows NT 10.0; Win64; x64) AppleWebKit/537.36 (KHTML, like Gecko) Chrome/90.0.4430.85 Safari/537.36 Edg/90.0.818.46" etag="wjzBKPjz_DkbUsqkQ3MM" version="14.6.1" type="github">
  <diagram id="iJB8e4C8LSmCXrwoH1_6" name="Page-1">
    <mxGraphModel dx="1662" dy="762" grid="1" gridSize="10" guides="1" tooltips="1" connect="1" arrows="1" fold="1" page="1" pageScale="1" pageWidth="1169" pageHeight="827" math="0" shadow="0">
      <root>
        <mxCell id="0" />
        <mxCell id="1" parent="0" />
        <mxCell id="HlrDbo4SVCVQP59pXL_A-2" value="&lt;b&gt;Client 1&lt;/b&gt;" style="shape=umlFrame;whiteSpace=wrap;html=1;width=160;height=40;" vertex="1" parent="1">
          <mxGeometry x="40" y="40" width="160" height="390" as="geometry" />
        </mxCell>
        <mxCell id="HlrDbo4SVCVQP59pXL_A-3" value="&lt;b&gt;Server&lt;/b&gt;" style="shape=umlFrame;whiteSpace=wrap;html=1;width=160;height=40;" vertex="1" parent="1">
          <mxGeometry x="320" y="40" width="160" height="390" as="geometry" />
        </mxCell>
        <mxCell id="HlrDbo4SVCVQP59pXL_A-4" value="&lt;b&gt;Client 2&lt;/b&gt;" style="shape=umlFrame;whiteSpace=wrap;html=1;width=160;height=40;" vertex="1" parent="1">
          <mxGeometry x="600" y="40" width="160" height="390" as="geometry" />
        </mxCell>
        <mxCell id="HlrDbo4SVCVQP59pXL_A-6" value="&lt;b&gt;Nadawca&lt;/b&gt;" style="html=1;" vertex="1" parent="1">
          <mxGeometry x="40" y="120" width="160" height="40" as="geometry" />
        </mxCell>
        <mxCell id="HlrDbo4SVCVQP59pXL_A-7" value="&lt;span style=&quot;font-family: &amp;#34;arial&amp;#34;&quot;&gt;&lt;font style=&quot;font-size: 12px&quot;&gt;&lt;b&gt;Słuchacz&lt;/b&gt;&lt;/font&gt;&lt;/span&gt;" style="html=1;" vertex="1" parent="1">
          <mxGeometry x="40" y="320" width="160" height="40" as="geometry" />
        </mxCell>
        <mxCell id="HlrDbo4SVCVQP59pXL_A-9" value="&lt;span style=&quot;font-family: &amp;#34;arial&amp;#34;&quot;&gt;&lt;b&gt;Słuchacz&lt;/b&gt;&lt;/span&gt;" style="html=1;" vertex="1" parent="1">
          <mxGeometry x="320" y="120" width="160" height="80" as="geometry" />
        </mxCell>
        <mxCell id="HlrDbo4SVCVQP59pXL_A-10" value="&lt;b&gt;Nadawca&lt;/b&gt;" style="html=1;" vertex="1" parent="1">
          <mxGeometry x="600" y="160" width="160" height="40" as="geometry" />
        </mxCell>
        <mxCell id="HlrDbo4SVCVQP59pXL_A-11" value="&lt;b&gt;Object&lt;/b&gt;" style="html=1;" vertex="1" parent="1">
          <mxGeometry x="600" y="295" width="160" height="40" as="geometry" />
        </mxCell>
        <mxCell id="HlrDbo4SVCVQP59pXL_A-13" value="dźwięk" style="html=1;verticalAlign=bottom;endArrow=block;exitX=1;exitY=0.5;exitDx=0;exitDy=0;entryX=0;entryY=0.25;entryDx=0;entryDy=0;" edge="1" parent="1" source="HlrDbo4SVCVQP59pXL_A-6" target="HlrDbo4SVCVQP59pXL_A-9">
          <mxGeometry width="80" relative="1" as="geometry">
            <mxPoint x="210" y="520" as="sourcePoint" />
            <mxPoint x="290" y="520" as="targetPoint" />
          </mxGeometry>
        </mxCell>
        <mxCell id="HlrDbo4SVCVQP59pXL_A-16" value="dźwięk" style="html=1;verticalAlign=bottom;endArrow=block;exitX=0;exitY=0.5;exitDx=0;exitDy=0;entryX=1;entryY=0.75;entryDx=0;entryDy=0;" edge="1" parent="1" source="HlrDbo4SVCVQP59pXL_A-10" target="HlrDbo4SVCVQP59pXL_A-9">
          <mxGeometry width="80" relative="1" as="geometry">
            <mxPoint x="430" y="285" as="sourcePoint" />
            <mxPoint x="520" y="140" as="targetPoint" />
          </mxGeometry>
        </mxCell>
        <mxCell id="HlrDbo4SVCVQP59pXL_A-20" value="dispatch" style="html=1;verticalAlign=bottom;endArrow=block;entryX=1;entryY=0.5;entryDx=0;entryDy=0;exitX=0.006;exitY=0.857;exitDx=0;exitDy=0;exitPerimeter=0;" edge="1" parent="1" source="HlrDbo4SVCVQP59pXL_A-22" target="HlrDbo4SVCVQP59pXL_A-7">
          <mxGeometry width="80" relative="1" as="geometry">
            <mxPoint x="290" y="300" as="sourcePoint" />
            <mxPoint x="240" y="390" as="targetPoint" />
          </mxGeometry>
        </mxCell>
        <mxCell id="HlrDbo4SVCVQP59pXL_A-21" value="dispatch" style="html=1;verticalAlign=bottom;endArrow=block;entryX=0;entryY=0.5;entryDx=0;entryDy=0;exitX=1;exitY=0.5;exitDx=0;exitDy=0;" edge="1" parent="1" source="HlrDbo4SVCVQP59pXL_A-22" target="HlrDbo4SVCVQP59pXL_A-11">
          <mxGeometry width="80" relative="1" as="geometry">
            <mxPoint x="480" y="340" as="sourcePoint" />
            <mxPoint x="600" y="390" as="targetPoint" />
          </mxGeometry>
        </mxCell>
        <mxCell id="HlrDbo4SVCVQP59pXL_A-22" value="" style="html=1;" vertex="1" parent="1">
          <mxGeometry x="320" y="280" width="160" height="70" as="geometry" />
        </mxCell>
        <mxCell id="HlrDbo4SVCVQP59pXL_A-24" value="Nadawca" style="text;align=center;fontStyle=1;verticalAlign=middle;spacingLeft=3;spacingRight=3;strokeColor=none;rotatable=0;points=[[0,0.5],[1,0.5]];portConstraint=eastwest;" vertex="1" parent="1">
          <mxGeometry x="320" y="280" width="160" height="20" as="geometry" />
        </mxCell>
        <mxCell id="HlrDbo4SVCVQP59pXL_A-25" value="" style="line;strokeWidth=1;fillColor=none;align=left;verticalAlign=middle;spacingTop=-1;spacingLeft=3;spacingRight=3;rotatable=0;labelPosition=right;points=[];portConstraint=eastwest;" vertex="1" parent="1">
          <mxGeometry x="320" y="296" width="160" height="8" as="geometry" />
        </mxCell>
        <mxCell id="HlrDbo4SVCVQP59pXL_A-26" value="" style="line;strokeWidth=1;fillColor=none;align=left;verticalAlign=middle;spacingTop=-1;spacingLeft=3;spacingRight=3;rotatable=0;labelPosition=right;points=[];portConstraint=eastwest;" vertex="1" parent="1">
          <mxGeometry x="320" y="320" width="160" height="8" as="geometry" />
        </mxCell>
        <mxCell id="HlrDbo4SVCVQP59pXL_A-27" value="Wątek 2" style="text;align=center;fontStyle=0;verticalAlign=middle;spacingLeft=3;spacingRight=3;strokeColor=none;rotatable=0;points=[[0,0.5],[1,0.5]];portConstraint=eastwest;" vertex="1" parent="1">
          <mxGeometry x="320" y="302" width="160" height="18" as="geometry" />
        </mxCell>
        <mxCell id="HlrDbo4SVCVQP59pXL_A-28" value="Wątek 1" style="text;align=center;fontStyle=0;verticalAlign=middle;spacingLeft=3;spacingRight=3;strokeColor=none;rotatable=0;points=[[0,0.5],[1,0.5]];portConstraint=eastwest;" vertex="1" parent="1">
          <mxGeometry x="320" y="328" width="160" height="18" as="geometry" />
        </mxCell>
      </root>
    </mxGraphModel>
  </diagram>
</mxfile>
